<?xml version="1.0" encoding="UTF-8" standalone="no"?>
<svg
   xmlns:dc="http://purl.org/dc/elements/1.1/"
   xmlns:cc="http://creativecommons.org/ns#"
   xmlns:rdf="http://www.w3.org/1999/02/22-rdf-syntax-ns#"
   xmlns:svg="http://www.w3.org/2000/svg"
   xmlns="http://www.w3.org/2000/svg"
   xmlns:sodipodi="http://sodipodi.sourceforge.net/DTD/sodipodi-0.dtd"
   xmlns:inkscape="http://www.inkscape.org/namespaces/inkscape"
   width="80mm"
   height="80mm"
   viewBox="0 0 80 80"
   version="1.1"
   id="svg8"
   inkscape:version="1.0.1 (3bc2e813f5, 2020-09-07)"
   sodipodi:docname="FontStuffTest.svg">
  <defs
     id="defs2" />
  <sodipodi:namedview
     id="base"
     pagecolor="#ffffff"
     bordercolor="#666666"
     borderopacity="1.0"
     inkscape:pageopacity="0.0"
     inkscape:pageshadow="2"
     inkscape:zoom="0.0875"
     inkscape:cx="2841.7235"
     inkscape:cy="1180.29"
     inkscape:document-units="mm"
     inkscape:current-layer="layer1"
     inkscape:document-rotation="0"
     showgrid="false"
     inkscape:snap-intersection-paths="true"
     fit-margin-top="0"
     fit-margin-left="0"
     fit-margin-right="0"
     fit-margin-bottom="0"
     inkscape:window-width="1267"
     inkscape:window-height="860"
     inkscape:window-x="-8"
     inkscape:window-y="40"
     inkscape:window-maximized="0"
     inkscape:snap-global="true" />
  <metadata
     id="metadata5">
    <rdf:RDF>
      <cc:Work
         rdf:about="">
        <dc:format>image/svg+xml</dc:format>
        <dc:type
           rdf:resource="http://purl.org/dc/dcmitype/StillImage" />
        <dc:title />
      </cc:Work>
    </rdf:RDF>
  </metadata>
  <g
     inkscape:label="Layer 1"
     inkscape:groupmode="layer"
     id="layer1"
     transform="translate(651.99302,141.65894)">
    <path
       style="fill:#000000;fill-opacity:1;stroke:none;stroke-width:0.264583px;stroke-linecap:butt;stroke-linejoin:miter;stroke-opacity:1"
       d="m -330.97586,147.16053 h 16 v 16 h -16 z"
       id="path940" />
    <path
       id="path940-0"
       style="fill:#000000;fill-opacity:1;stroke:none;stroke-width:0.264583px;stroke-linecap:butt;stroke-linejoin:miter;stroke-opacity:1"
       d="m 548.83924,-30.30632 v 16.000042 h 32.00011 V 1.6937902 h 16.00007 V -14.306278 h 16.00004 V -30.30632 Z M 580.83935,1.6937902 H 564.83931 V 17.693329 h 16.00004 z M 564.83931,17.693329 H 532.8392 V 49.69344 h 80.00026 V 33.693371 h -48.00015 z"
       sodipodi:nodetypes="ccccccccccccccccccccc" />
    <path
       style="fill:#000000;fill-opacity:1;stroke:none;stroke-width:0.264583px;stroke-linecap:butt;stroke-linejoin:miter;stroke-opacity:1"
       d="m -330.97586,163.16053 h 16 v 16 h -16 z"
       id="path940-6" />
    <path
       style="fill:#000000;fill-opacity:1;stroke:none;stroke-width:0.264583px;stroke-linecap:butt;stroke-linejoin:miter;stroke-opacity:1"
       d="m -314.97586,163.16053 h 16 v 16 h -16 z"
       id="path940-9" />
    <path
       style="fill:#000000;fill-opacity:1;stroke:none;stroke-width:0.264583px;stroke-linecap:butt;stroke-linejoin:miter;stroke-opacity:1"
       d="m -298.97586,163.16053 h 16 v 16 h -16 z"
       id="path940-91" />
    <path
       style="fill:#000000;fill-opacity:1;stroke:none;stroke-width:0.264583px;stroke-linecap:butt;stroke-linejoin:miter;stroke-opacity:1"
       d="m -266.97586,163.16053 h 16 v 16 h -16 z"
       id="path940-5" />
    <path
       style="fill:#000000;fill-opacity:1;stroke:none;stroke-width:0.264583px;stroke-linecap:butt;stroke-linejoin:miter;stroke-opacity:1"
       d="m -330.97586,179.16053 h 16 v 15.99999 h -16 z"
       id="path940-53" />
    <path
       style="fill:#000000;fill-opacity:1;stroke:none;stroke-width:0.264583px;stroke-linecap:butt;stroke-linejoin:miter;stroke-opacity:1"
       d="m -314.97586,179.16053 h 16 v 15.99999 h -16 z"
       id="path940-58" />
    <path
       style="fill:#000000;fill-opacity:1;stroke:none;stroke-width:0.264583px;stroke-linecap:butt;stroke-linejoin:miter;stroke-opacity:1"
       d="m -282.97586,179.16053 h 16 v 16 h -16 z"
       id="path940-67" />
    <path
       style="fill:#000000;fill-opacity:1;stroke:none;stroke-width:0.264583px;stroke-linecap:butt;stroke-linejoin:miter;stroke-opacity:1"
       d="m -266.97586,179.16053 h 16 v 15.99999 h -16 z"
       id="path940-580" />
    <path
       style="fill:#000000;fill-opacity:1;stroke:none;stroke-width:0.264583px;stroke-linecap:butt;stroke-linejoin:miter;stroke-opacity:1"
       d="m -298.97586,195.16052 h 16 v 16 h -16 z"
       id="path940-659" />
    <path
       style="fill:#000000;fill-opacity:1;stroke:none;stroke-width:0.264583px;stroke-linecap:butt;stroke-linejoin:miter;stroke-opacity:1"
       d="m -282.97586,195.16052 h 16 v 15.99999 h -16 z"
       id="path940-30" />
    <path
       style="fill:#000000;fill-opacity:1;stroke:none;stroke-width:0.264583px;stroke-linecap:butt;stroke-linejoin:miter;stroke-opacity:1"
       d="m -266.97586,195.16053 h 16 v 16 h -16 z"
       id="path940-2" />
    <path
       id="path940-04-7"
       style="fill:#000000;fill-opacity:1;stroke:none;stroke-width:0.264583px;stroke-linecap:butt;stroke-linejoin:miter;stroke-opacity:1"
       d="m -619.99342,-141.65894 v 16.00006 h 16.00006 v -16.00006 z m 16.00006,16.00006 v 16.00006 h 16.00006 v -16.00006 z m 16.00006,16.00006 v 16.000051 h -48.00017 v -16.000051 h 16.00005 v -16.00006 h -31.9996 v 64.000211 h 15.99955 v -16.00004 h 48.00017 v 16.00004 h 16.00005 v -48.000151 z"
       sodipodi:nodetypes="ccccccccccccccccccccccccc" />
    <path
       id="path940-7"
       style="fill:#000000;fill-opacity:1;stroke:none;stroke-width:0.264583px;stroke-linecap:butt;stroke-linejoin:miter;stroke-opacity:1"
       d="m -540.74576,-138.63513 v 64.000231 h 15.99954 v -16.00006 h 48.00017 v -32.000111 h -16.00006 v 16.00006 h -32.00011 v -16.00006 h 32.00011 v -16.00006 z m 63.99971,48.000171 v 16.00006 h 16.00006 v -16.00006 z m 0,16.00006 h -48.00017 v 16.00005 h 48.00017 z"
       sodipodi:nodetypes="ccccccccccccccccccccccc" />
    <path
       id="path940-27"
       style="fill:#000000;fill-opacity:1;stroke:none;stroke-width:0.264583px;stroke-linecap:butt;stroke-linejoin:miter;stroke-opacity:1"
       d="m -452.18489,-134.3589 v 64.000221 h 16.00006 v -48.000171 h 16.00006 v 16.00006 h 16.00005 v -32.00011 z m 16.00006,64.000221 v 16.00007 h 48.00017 v -16.00007 z m 48.00017,0 h 16.00006 v -16.00005 h -16.00006 z"
       sodipodi:nodetypes="ccccccccccccccccccc" />
    <path
       id="path940-69"
       style="fill:#000000;fill-opacity:1;stroke:none;stroke-width:0.264583px;stroke-linecap:butt;stroke-linejoin:miter;stroke-opacity:1"
       d="m -365.05459,-132.75516 v 80.000291 h 63.99971 v -16.00007 h 16.00006 v -32.000111 h -16.00006 v 16.000061 h -16.00006 v 16.00005 h -32.00011 V -116.7551 h 32.00011 v -16.00006 z m 47.99965,16.00006 v 16.00005 h 16.00006 v -16.00005 z"
       sodipodi:nodetypes="cccccccccccccccccccc" />
    <path
       id="path940-694"
       style="fill:#000000;fill-opacity:1;stroke:none;stroke-width:0.264583px;stroke-linecap:butt;stroke-linejoin:miter;stroke-opacity:1"
       d="m -274.66047,-132.75517 v 64.000231 h 16.00006 v -48.000171 h 47.99965 v -16.00006 z m 16.00006,64.000231 v 16.00005 c 21.33324,0 42.66647,0 63.99971,0 0,-10.666703 0,-21.333407 0,-32.00011 h -16.00006 v 16.00006 z m 16.00006,-32.000111 v 16.000051 h 16.00005 v -16.000051 z"
       sodipodi:nodetypes="ccccccccccccccccccc" />
    <path
       id="path940-50"
       style="fill:#000000;fill-opacity:1;stroke:none;stroke-width:0.264583px;stroke-linecap:butt;stroke-linejoin:miter;stroke-opacity:1"
       d="m -178.3233,-134.41177 v 79.999778 h 16.00006 v -16.000063 h 16.00005 v -16.000058 h -16.00005 v -31.999597 h 47.99965 v -16.00006 z m 32.00011,47.999657 h 47.999656 v -16.000057 h -47.999656 z"
       sodipodi:nodetypes="cccccccccccccccc" />
    <path
       id="path940-55"
       style="fill:#000000;fill-opacity:1;stroke:none;stroke-width:0.264583px;stroke-linecap:butt;stroke-linejoin:miter;stroke-opacity:1"
       d="m -85.023801,-134.35215 v 63.999708 h 16.000057 V -118.3521 h 31.999597 v -16.00005 z m 16.000057,63.999708 V -54.3524 H -21.02409 V -86.351981 H -5.0240346 V -102.35204 H -53.023687 v 16.000059 h 15.99954 v 15.999539 z"
       sodipodi:nodetypes="cccccccccccccccccc" />
    <path
       id="path940-78"
       style="fill:#000000;fill-opacity:1;stroke:none;stroke-width:0.264583px;stroke-linecap:butt;stroke-linejoin:miter;stroke-opacity:1"
       d="m 7.4512847,-133.28341 v 64.000229 H 23.451342 v -16.000058 h 48.000171 v 32.000115 H 87.451571 V -117.28335 H 71.451513 v 16.00006 H 23.451342 v -16.00006 H 39.4514 v -16.00006 z"
       sodipodi:nodetypes="ccccccccccccccc" />
    <path
       id="path940-79"
       style="fill:#000000;fill-opacity:1;stroke:none;stroke-width:0.264583px;stroke-linecap:butt;stroke-linejoin:miter;stroke-opacity:1"
       d="m 106.60812,-135.95594 v 32.00012 h 16.00006 v -16.00006 h 16.00005 v 48.000169 h -16.00005 v 16.000058 h 64.00021 v -16.000058 h -32.0001 v -48.000169 h 16.00006 v -16.00006 z"
       sodipodi:nodetypes="ccccccccccccccc" />
    <path
       id="path940-42"
       style="fill:#000000;fill-opacity:1;stroke:none;stroke-width:0.264583px;stroke-linecap:butt;stroke-linejoin:miter;stroke-opacity:1"
       d="m 218.35839,-135.95594 v 32.00012 h 16.00006 v -16.00006 h 31.99959 v 48.000169 H 250.3585 v 16.000058 h 31.9996 v -64.000227 h 16.00006 v -16.00006 z m 32.00011,64.000229 v -16.000058 h -32.00011 v 16.000058 z"
       sodipodi:nodetypes="cccccccccccccccccc" />
    <path
       id="path940-36"
       style="fill:#000000;fill-opacity:1;stroke:none;stroke-width:0.264583px;stroke-linecap:butt;stroke-linejoin:miter;stroke-opacity:1"
       d="m 314.93541,-138.94741 v 79.999772 h 16.00005 v -32.000115 h 32.00012 v -16.000057 h -32.00012 v -16.00006 h 16.00006 v -15.99954 z m 48.00017,31.9996 h 16.00006 v -16.00006 h -16.00006 z m 16.00006,-16.00006 h 16.00004 v -15.99954 h -16.00004 z m -16.00006,32.000117 v 32.000115 h 16.00006 v -32.000115 z"
       sodipodi:nodetypes="cccccccccccccccccccccccccc" />
    <path
       id="path940-536"
       style="fill:#000000;fill-opacity:1;stroke:none;stroke-width:0.264583px;stroke-linecap:butt;stroke-linejoin:miter;stroke-opacity:1"
       d="m 426.23507,-137.02452 v 63.999705 h 16.00006 v 16.000058 h 32.00012 v -16.000058 h -16.00007 v -16.000058 h -16.00005 v -47.999647 z m 48.00018,63.999705 h 16.00004 v -16.000058 h -16.00004 z m 16.00004,0 v 16.000058 h 16.00007 v -16.000058 z"
       sodipodi:nodetypes="ccccccccccccccccccccc" />
    <path
       id="path940-96"
       style="fill:#000000;fill-opacity:1;stroke:none;stroke-width:0.264583px;stroke-linecap:butt;stroke-linejoin:miter;stroke-opacity:1"
       d="m 531.93774,-132.11135 v 64.000225 H 547.9378 V -116.1113 h 16.00006 v 48.000175 h 16.00006 v -32.000115 h 16.00005 v 47.999654 h 16.00006 V -116.1113 h -32.00011 v -16.00005 z"
       sodipodi:nodetypes="ccccccccccccccc" />
    <path
       id="path940-80"
       style="fill:#000000;fill-opacity:1;stroke:none;stroke-width:0.264583px;stroke-linecap:butt;stroke-linejoin:miter;stroke-opacity:1"
       d="m -651.99664,-19.478803 v 64.000228 h 16.00006 V -3.4787457 h 16.00004 V 28.521367 h 16.00007 v -48.00017 z m 48.00017,48.00017 v 16.000058 h 16.00007 V 60.52148 h 16.00004 v -80.000283 h -16.00004 v 48.00017 z"
       sodipodi:nodetypes="cccccccccccccccccc" />
    <path
       id="path940-15"
       style="fill:#000000;fill-opacity:1;stroke:none;stroke-width:0.264583px;stroke-linecap:butt;stroke-linejoin:miter;stroke-opacity:1"
       d="m -543.92553,-21.297111 v 47.999655 h 16.00006 V -5.2970533 h 47.99965 V -21.297111 Z m 63.99971,16.0000577 V 42.702599 h 16.00004 V -5.2970533 Z m 0,47.9996523 h -32.00011 v 16.000057 h 32.00011 z m -32.00011,0 V 26.702544 h -15.99954 v 16.000055 z"
       sodipodi:nodetypes="cccccccccccccccccccccc" />
    <path
       id="path940-553"
       style="fill:#000000;fill-opacity:1;stroke:none;stroke-width:0.264583px;stroke-linecap:butt;stroke-linejoin:miter;stroke-opacity:1"
       d="m -447.82047,-17.99532 v 80.000283 h 16.00004 V 30.00485 h 64.00025 V -1.9952627 h -16.00007 V 14.004792 h -48.00018 V -1.9952627 h 48.00018 V -17.99532 Z"
       sodipodi:nodetypes="ccccccccccccc" />
    <path
       id="path940-62"
       style="fill:#000000;fill-opacity:1;stroke:none;stroke-width:0.264583px;stroke-linecap:butt;stroke-linejoin:miter;stroke-opacity:1"
       d="m -364.79637,-15.474029 v 63.999712 h 16.00004 V 0.52602835 h 48.00018 V -15.474029 Z m 64.00022,16.00005735 V 32.526141 h 16.00007 V 0.52602835 Z m 0,32.00011265 h -16.00004 v 15.999542 h 16.00004 z m 0,15.999542 v 16.000055 h 16.00007 V 48.525683 Z m -16.00004,0 h -32.00014 v 16.000055 h 32.00014 z m 0,-15.999542 V 16.526086 h -16.00007 v 16.000055 z"
       sodipodi:nodetypes="cccccccccccccccccccccccccccccccc" />
    <path
       id="path940-09"
       style="fill:#000000;fill-opacity:1;stroke:none;stroke-width:0.264583px;stroke-linecap:butt;stroke-linejoin:miter;stroke-opacity:1"
       d="M -276.59742,-30.846658 V 49.15362 h 16.00007 V 17.153512 h 16.00004 v 16.000066 h 16.00007 V 17.153512 h 32.00011 v -32.000115 h -16.00004 V 1.1534545 h -48.00018 V -14.846603 h 48.00018 v -16.000055 z m 48.00018,64.000236 V 49.15362 h 32.00011 V 33.153578 Z"
       sodipodi:nodetypes="cccccccccccccccccccccc" />
    <path
       id="path940-0-1"
       style="fill:#000000;fill-opacity:1;stroke:none;stroke-width:0.264583px;stroke-linecap:butt;stroke-linejoin:miter;stroke-opacity:1"
       d="m -171.3949,-28.578358 v 15.999539 h 32.00011 v -15.999539 z m 0,15.999539 h -16.00004 V 3.4212385 h 16.00004 z m 0,16.0000575 V 19.421294 h 48.00018 v 16.000057 h 16.00004 V 3.4212385 Z m 48.00018,32.0001125 h -64.00022 v 16.000058 h 64.00022 z"
       sodipodi:nodetypes="cccccccccccccccccccccc" />
    <path
       id="path940-24"
       style="fill:#000000;fill-opacity:1;stroke:none;stroke-width:0.264583px;stroke-linecap:butt;stroke-linejoin:miter;stroke-opacity:1"
       d="M -103.35286,-26.310796 V 5.6893165 h 16.000067 V -10.310741 h 16.000069 v 64.000223 h 15.999539 v -64.000223 h 32.00011 v -16.000055 z"
       sodipodi:nodetypes="ccccccccccc" />
    <path
       id="path940-587"
       style="fill:#000000;fill-opacity:1;stroke:none;stroke-width:0.999999px;stroke-linecap:butt;stroke-linejoin:miter;stroke-opacity:1"
       d="m 2397.3906,431.67578 v 241.89063 h 60.4727 V 492.14844 h 60.4726 v -60.47266 z m 60.4727,241.89063 v 60.47265 h 120.9453 v -60.47265 z m 120.9453,0 h 60.4707 v -60.47266 h -60.4707 z m 60.4707,-60.47266 h 60.4727 V 492.14844 h -60.4727 z"
       transform="matrix(0.26458333,0,0,0.26458333,-651.99302,-141.65894)"
       sodipodi:nodetypes="cccccccccccccccccccccc" />
    <path
       id="path940-939"
       style="fill:#000000;fill-opacity:1;stroke:none;stroke-width:0.264583px;stroke-linecap:butt;stroke-linejoin:miter;stroke-opacity:1"
       d="M 91.968094,-23.431445 V 8.5686678 H 107.96814 V -7.4313873 H 123.9682 V -23.431445 Z M 107.96814,8.5686678 V 40.568783 H 123.9682 V 8.5686678 Z M 123.9682,40.568783 v 16.000055 h 16.00005 V 40.568783 Z m 16.00005,0 h 15.99954 V 8.5686678 H 139.96825 Z M 155.96779,8.5686678 h 16.00006 V -7.4313873 h -16.00006 z"
       sodipodi:nodetypes="ccccccccccccccccccccccccccc" />
    <path
       id="path940-676"
       style="fill:#000000;fill-opacity:1;stroke:none;stroke-width:0.264583px;stroke-linecap:butt;stroke-linejoin:miter;stroke-opacity:1"
       d="m 199.35193,-17.761517 v 63.999713 h 32.00011 v -15.99954 h -16.00007 v -48.000173 z m 32.00011,48.000173 h 16.00004 c 0.23566,-0.471313 0,-48.000173 0,-48.000173 h -16.00004 z m 16.00004,0 v 31.999608 h 16.00007 V 30.238656 Z m 16.00007,0 h 16.00004 v -48.000173 h -16.00004 z"
       sodipodi:nodetypes="cccccccccccccccccccccc" />
    <path
       id="path940-54"
       style="fill:#000000;fill-opacity:1;stroke:none;stroke-width:0.264583px;stroke-linecap:butt;stroke-linejoin:miter;stroke-opacity:1"
       d="M 297.43882,-23.435275 V 8.5648352 h 32.00011 V -7.4352067 H 313.43886 V -23.435275 Z M 329.43893,8.5648352 V 24.564374 h 16.00004 V 8.5648352 Z m 16.00004,0 h 31.99961 V -23.435275 h -16.00007 v 16.0000683 h -15.99954 z m 0,15.9995388 v 16.000069 h 15.99954 v 16.000042 h 16.00007 V 24.564374 Z m -16.00004,0 h -32.00011 v 32.000111 h 16.00004 V 40.564443 h 16.00007 z"
       sodipodi:nodetypes="ccccccccccccccccccccccccccccccccc" />
    <path
       id="path940-246"
       style="fill:#000000;fill-opacity:1;stroke:none;stroke-width:0.264583px;stroke-linecap:butt;stroke-linejoin:miter;stroke-opacity:1"
       d="M 424.12342,-24.863038 V 7.136543 h 32.00011 V -8.8629962 H 440.12349 V -24.863038 Z M 456.12353,7.136543 V 23.136611 H 472.1236 V 7.136543 Z m 16.00007,0 h 16.00004 v 32.00011 h 16.00007 V -24.863038 H 488.12364 V -8.8629962 H 472.1236 Z m 16.00004,32.00011 h -64.00022 v 16.000069 h 64.00022 z"
       sodipodi:nodetypes="cccccccccccccccccccccccccc" />
    <path
       style="fill:#000000;fill-opacity:1;stroke:none;stroke-width:0.264583px;stroke-linecap:butt;stroke-linejoin:miter;stroke-opacity:1"
       d="m -314.97586,147.16053 h 16 v 16 h -16 z"
       id="path940-659-6" />
    <path
       style="fill:#000000;fill-opacity:1;stroke:none;stroke-width:0.264583px;stroke-linecap:butt;stroke-linejoin:miter;stroke-opacity:1"
       d="m -298.97586,147.16053 h 16 v 15.99999 h -16 z"
       id="path940-30-3" />
    <path
       style="fill:#000000;fill-opacity:1;stroke:none;stroke-width:0.264583px;stroke-linecap:butt;stroke-linejoin:miter;stroke-opacity:1"
       d="m -282.97586,147.16054 h 16 v 16 h -16 z"
       id="path940-2-5" />
    <path
       style="fill:#000000;fill-opacity:1;stroke:none;stroke-width:0.264583px;stroke-linecap:butt;stroke-linejoin:miter;stroke-opacity:1"
       d="m -330.97586,195.16052 h 16 v 16 h -16 z"
       id="path940-67-8" />
    <path
       style="fill:#000000;fill-opacity:1;stroke:none;stroke-width:0.264583px;stroke-linecap:butt;stroke-linejoin:miter;stroke-opacity:1"
       d="m -314.97586,195.16052 h 16 v 15.99999 h -16 z"
       id="path940-580-3" />
    <path
       style="fill:#000000;fill-opacity:1;stroke:none;stroke-width:0.264583px;stroke-linecap:butt;stroke-linejoin:miter;stroke-opacity:1"
       d="m -298.97586,211.16052 h 16 v 16 h -16 z"
       id="path940-659-67" />
    <path
       style="fill:#000000;fill-opacity:1;stroke:none;stroke-width:0.264583px;stroke-linecap:butt;stroke-linejoin:miter;stroke-opacity:1"
       d="m -282.97586,211.16052 h 16 v 15.99999 h -16 z"
       id="path940-30-8" />
    <path
       style="fill:#000000;fill-opacity:1;stroke:none;stroke-width:0.264583px;stroke-linecap:butt;stroke-linejoin:miter;stroke-opacity:1"
       d="m -266.97586,211.16053 h 16 v 16 h -16 z"
       id="path940-2-2" />
    <path
       style="fill:#000000;fill-opacity:1;stroke:none;stroke-width:0.264583px;stroke-linecap:butt;stroke-linejoin:miter;stroke-opacity:1"
       d="m -330.97586,211.16052 h 16 v 16 h -16 z"
       id="path940-67-8-1" />
    <path
       style="fill:#000000;fill-opacity:1;stroke:none;stroke-width:0.264583px;stroke-linecap:butt;stroke-linejoin:miter;stroke-opacity:1"
       d="m -314.97586,211.16052 h 16 v 15.99999 h -16 z"
       id="path940-580-3-9" />
    <path
       style="fill:#000000;fill-opacity:1;stroke:none;stroke-width:0.264583px;stroke-linecap:butt;stroke-linejoin:miter;stroke-opacity:1"
       d="m -266.97586,147.16053 h 16 v 16 h -16 z"
       id="path940-5-6" />
    <path
       style="fill:#000000;fill-opacity:1;stroke:none;stroke-width:0.264583px;stroke-linecap:butt;stroke-linejoin:miter;stroke-opacity:1"
       d="m -282.97586,163.16053 h 16 v 16 h -16 z"
       id="path940-67-88" />
    <path
       style="fill:#000000;fill-opacity:1;stroke:none;stroke-width:0.264583px;stroke-linecap:butt;stroke-linejoin:miter;stroke-opacity:1"
       d="m -298.97586,179.16052 h 16 v 16 h -16 z"
       id="path940-659-7" />
  </g>
</svg>
